<svg id="Layer_1" xmlns="http://www.w3.org/2000/svg" viewBox="0 0 792 612"><style>.st0{enable-background:new ;}</style><g class="st0"><path d="M350 312.3c-.5.2-1.2.2-1.9.2-2.2 0-4.2-.8-5.8-2.5s-2.4-3.6-2.4-5.9c0-1.2.2-2.4.6-3.7 1.1-1.2 2.4-2.3 4-3.1v-1.8l1.1-.6c-.3 1.5-.5 3-.5 4.5v.5c1-1.4 2-2.5 3.1-3.2 2.2 0 3.9.7 5.3 2s2.1 3.1 2.1 5.2c0 1.2-.2 2.4-.7 3.5-.1.1-.9.7-2.4 2l-.4.4c-.9.7-1.6 1.6-2.1 2.5zm-5.5-3.2V298c-1.6 1.5-2.4 3.5-2.4 6 0 .9.2 1.8.6 2.6.4.9 1 1.7 1.8 2.5zm.7.4c1.1.7 2.2 1.1 3.2 1.1 1.5 0 2.7-.6 3.6-1.7 1-1.1 1.4-2.5 1.4-4.2 0-1.7-.5-3.1-1.5-4.3-1-1.2-2.2-1.8-3.6-1.8-1.2 0-2.2.7-3.3 2.2v8.7zm3.6-6.7c.5.8 1 1.3 1.6 1.6-.6.3-1.2.9-1.6 1.7-.5-.8-1-1.3-1.7-1.7.7-.3 1.2-.8 1.7-1.6zM363.7 308.5c-1 1.7-2 3-3.1 3.9-.9-.6-1.6-1.4-2.1-2.5s-.8-2.3-.8-3.7c0-1.3.1-2.5.4-3.6-.7.1-1.3.5-1.9 1.2l-.4-.5c.8-1.3 1.9-2.2 3.3-2.9.4.5.9 1 1.5 1.3-.6.9-.9 2.2-.9 3.9 0 2 .5 3.4 1.6 4.2.8-.6 1.6-1.4 2.3-2.5v-.8c0-1.1.1-2.1.3-3-.4-.5-.8-.9-1.1-1.1.6-.5 1.3-1.2 1.9-2.1.4.8.9 1.4 1.5 1.8-.4 1.3-.6 2.8-.6 4.6 0 1.2.1 2.1.3 2.8.5-.2 1-.5 1.6-1l.5.5c-1.1.9-2 1.9-2.9 2.9-.1.1-.2.2-.3.4-.6-.6-1-1.9-1.1-3.8zM372 306.2v3.3c.3.4.7.7 1.1 1.1-.7.6-1.3 1.2-1.7 1.8-.5-.7-1.1-1.2-1.8-1.6.2-.8.3-1.5.3-2.2v-3.8c0-.9-.2-1.6-.5-2-.6.4-1.1.9-1.5 1.5l-.5-.4c.7-1.2 1.7-2.4 3-3.4.9 1 1.4 2.2 1.5 3.8.5-1.7 1.5-2.9 2.9-3.8.5.7 1.1 1 1.7 1.1-.2 1-.5 1.8-1 2.3-.6-.2-1.1-.5-1.5-.9-.8.7-1.5 1.8-2 3.2z"/></g><g class="st0"><path d="M390.2 306.5l-.8.7-.7.1-.5 5c0 .4-.5.7-2 1.4.1-.5.2-1.2.2-2-2.3.6-2.9.7-3.7.7-2.8 0-5.5-2.2-5.5-5.9 0-4.4 2.6-7.3 7.1-7.3 3.7 0 4.5 1.7 4.5 2.1 0 .1 0 .3-1 1.5l-.5.5-.2-.1c-.1-2-1.2-3.4-3.3-3.4-2.9 0-4.2 2.8-4.2 5.8 0 2.9 1.3 5.8 4.6 5.8.4 0 1.3-.1 2.3-.4 0-.7.1-1.8.1-2.6 0-1-.2-1.1-1.1-1.2l-1.8-.3.7-.6h5.8zM398.2 310.6c-.2.3-2.2 1.9-4.2 1.9-2.2 0-2.9-1.8-2.9-3.9 0-3 1.2-3.9 1.4-4.1.1-.1 1.5-.9 2.3-1.2.8-.3 1.1-.4 1.6-.4 1.8 0 2.9 1.2 2.9 3.9-.1 2.2-.5 3-1.1 3.8zm-5-3.2c0 1.2.4 3.9 2.1 3.9 1.4 0 1.9-1.5 1.9-3.7 0-2.4-.9-3.7-2-3.7-1.5 0-2 1.6-2 3.5z"/><path d="M399.2 304.5c1-.6 3.1-1.6 3.3-1.6.1 0 .4.1.5.3.4 1.8 1.5 6.4 1.5 7.5 1.9-2.6 2.4-3.8 2.4-4.8 0-.9-.3-1.7-.8-2.3l2.1-.9c.5.5.7 1.1.7 1.7 0 .9-.4 1.8-1.4 3.2-2 2.8-2.6 3.7-3 4.3l-1.6.6c-.1-.9-.3-2.3-1.2-6-.3-1.4-.5-1.7-1.3-1.7-.3 0-.5 0-1.3.2v-.5zM411.1 309.3c.5 1.5 1.2 2 2.2 2 .9 0 1.4-.6 1.4-1.2 0-.5-.3-1-1.1-1.3-2.6-1-2.9-1.6-2.9-2.6 0-.8.3-1.4 1.1-2.1 1.1-1 1.6-1.2 2.8-1.2.7 0 1.5.1 2.1.9l-1.1 1.5h-.1c-.5-.9-1.3-1.3-2.1-1.3s-1.3.5-1.3 1.2c0 .5.3 1 1.9 1.5 1.7.5 2.3 1 2.3 2.3 0 .7-.3 1.6-1.4 2.4-1.3.9-2.3 1-3 1-1 0-2.1-.6-2.4-2l1.6-1.1z"/></g><g class="st0"><path d="M418.6 312.2v-1.5h1.4v1.5h-1.4zM423 308.3c0 1.1.1 3 1.6 3 1.3 0 1.4-1.1 1.5-2.1h1.1c0 1.6-.6 3.1-2.5 3.1-2.5 0-2.9-2.1-2.9-4.3 0-2 .3-4.5 2.9-4.5 1.7 0 2.5 1.3 2.5 2.8h-1.1c0-.9-.3-1.8-1.4-1.8-1.7.1-1.7 2.7-1.7 3.8zM431.6 312.4c-1.8 0-3-1.1-3-4.7 0-2.5.9-4.1 3-4.1s3 1.6 3 4.1c0 3.6-1.2 4.7-3 4.7zm0-7.8c-1.2 0-1.8 1-1.8 3.5 0 2 .4 3.3 1.8 3.3s1.8-1.3 1.8-3.3c-.1-2.5-.6-3.5-1.8-3.5zM437.6 312.2h-1.2v-8.3h1.1v1.1c.4-.7 1.1-1.3 2-1.3.9 0 1.6.5 2 1.3.6-.9 1.2-1.3 2.2-1.3.6 0 1.1.2 1.5.6.5.5.5 1.4.5 1.9v6h-1.2V306c0-.9-.3-1.5-1.3-1.5-.4 0-.8.2-1.1.5-.5.4-.5.9-.5 1.5v5.6h-1.2V306c0-.9-.3-1.5-1.2-1.5-.4 0-.9.2-1.2.5-.5.4-.5.9-.5 1.5v5.7z"/></g></svg>