<svg id="Layer_1" xmlns="http://www.w3.org/2000/svg" viewBox="0 0 792 612"><style>.st0{enable-background:new ;}</style><g class="st0"><path d="M350 312.3c-.5.2-1.2.2-1.9.2-2.2 0-4.2-.8-5.8-2.5s-2.4-3.6-2.4-5.9c0-1.2.2-2.4.6-3.7 1.1-1.2 2.4-2.3 4-3.1v-1.8l1.1-.6c-.3 1.5-.5 3-.5 4.5v.5c1-1.4 2-2.5 3.1-3.2 2.2 0 3.9.7 5.3 2s2.1 3.1 2.1 5.2c0 1.2-.2 2.4-.7 3.5-.1.1-.9.7-2.4 2l-.4.4c-.9.7-1.6 1.6-2.1 2.5zm-5.5-3.2V298c-1.6 1.5-2.4 3.5-2.4 6 0 .9.2 1.8.6 2.6.4.9 1 1.7 1.8 2.5zm.7.4c1.1.7 2.2 1.1 3.2 1.1 1.5 0 2.7-.6 3.6-1.7 1-1.1 1.4-2.5 1.4-4.2 0-1.7-.5-3.1-1.5-4.3-1-1.2-2.2-1.8-3.6-1.8-1.2 0-2.2.7-3.3 2.2v8.7zm3.6-6.7c.5.8 1 1.3 1.6 1.6-.6.3-1.2.9-1.6 1.7-.5-.8-1-1.3-1.7-1.7.7-.3 1.2-.8 1.7-1.6zM363.7 308.5c-1 1.7-2 3-3.1 3.9-.9-.6-1.6-1.4-2.1-2.5s-.8-2.3-.8-3.7c0-1.3.1-2.5.4-3.6-.7.1-1.3.5-1.9 1.2l-.4-.5c.8-1.3 1.9-2.2 3.3-2.9.4.5.9 1 1.5 1.3-.6.9-.9 2.2-.9 3.9 0 2 .5 3.4 1.6 4.2.8-.6 1.6-1.4 2.3-2.5v-.8c0-1.1.1-2.1.3-3-.4-.5-.8-.9-1.1-1.1.6-.5 1.3-1.2 1.9-2.1.4.8.9 1.4 1.5 1.8-.4 1.3-.6 2.8-.6 4.6 0 1.2.1 2.1.3 2.8.5-.2 1-.5 1.6-1l.5.5c-1.1.9-2 1.9-2.9 2.9-.1.1-.2.2-.3.4-.6-.6-1-1.9-1.1-3.8zM372 306.2v3.3c.3.4.7.7 1.1 1.1-.7.6-1.3 1.2-1.7 1.8-.5-.7-1.1-1.2-1.8-1.6.2-.8.3-1.5.3-2.2v-3.8c0-.9-.2-1.6-.5-2-.6.4-1.1.9-1.5 1.5l-.5-.4c.7-1.2 1.7-2.4 3-3.4.9 1 1.4 2.2 1.5 3.8.5-1.7 1.5-2.9 2.9-3.8.5.7 1.1 1 1.7 1.1-.2 1-.5 1.8-1 2.3-.6-.2-1.1-.5-1.5-.9-.8.7-1.5 1.8-2 3.2z"/></g></svg>