<?xml version="1.0" encoding="utf-8"?>
<!-- Generator: Adobe Illustrator 19.2.1, SVG Export Plug-In . SVG Version: 6.00 Build 0)  -->
<svg version="1.1" id="Layer_1" xmlns="http://www.w3.org/2000/svg" xmlns:xlink="http://www.w3.org/1999/xlink" x="0px" y="0px"
	 viewBox="0 0 792 612" style="enable-background:new 0 0 792 612;" xml:space="preserve">
<metadata><?xpacket begin="﻿" id="W5M0MpCehiHzreSzNTczkc9d"?>
<x:xmpmeta xmlns:x="adobe:ns:meta/" x:xmptk="Adobe XMP Core 5.6-c111 79.158366, 2015/09/25-01:12:00        ">
   <rdf:RDF xmlns:rdf="http://www.w3.org/1999/02/22-rdf-syntax-ns#">
      <rdf:Description rdf:about=""/>
   </rdf:RDF>
</x:xmpmeta>
                                                                                                    
                                                                                                    
                                                                                                    
                                                                                                    
                                                                                                    
                                                                                                    
                                                                                                    
                                                                                                    
                                                                                                    
                                                                                                    
                                                                                                    
                                                                                                    
                                                                                                    
                                                                                                    
                                                                                                    
                                                                                                    
                                                                                                    
                                                                                                    
                                                                                                    
                                                                                                    
                           
<?xpacket end="w"?></metadata>
<style type="text/css">
	.st0{enable-background:new    ;}
</style>
<g class="st0">
	<path d="M350,312.3c-0.5,0.2-1.2,0.2-1.9,0.2c-2.2,0-4.2-0.8-5.8-2.5s-2.4-3.6-2.4-5.9c0-1.2,0.2-2.4,0.6-3.7
		c1.1-1.2,2.4-2.3,4-3.1v-1.8l1.1-0.6c-0.3,1.5-0.5,3-0.5,4.5v0.5c1-1.4,2-2.5,3.1-3.2c2.2,0,3.9,0.7,5.3,2c1.4,1.3,2.1,3.1,2.1,5.2
		c0,1.2-0.2,2.4-0.7,3.5c-0.1,0.1-0.9,0.7-2.4,2l-0.4,0.4C351.2,310.5,350.5,311.4,350,312.3z M344.5,309.1V298
		c-1.6,1.5-2.4,3.5-2.4,6c0,0.9,0.2,1.8,0.6,2.6C343.1,307.5,343.7,308.3,344.5,309.1z M345.2,309.5c1.1,0.7,2.2,1.1,3.2,1.1
		c1.5,0,2.7-0.6,3.6-1.7c1-1.1,1.4-2.5,1.4-4.2c0-1.7-0.5-3.1-1.5-4.3c-1-1.2-2.2-1.8-3.6-1.8c-1.2,0-2.2,0.7-3.3,2.2V309.5z
		 M348.8,302.8c0.5,0.8,1,1.3,1.6,1.6c-0.6,0.3-1.2,0.9-1.6,1.7c-0.5-0.8-1-1.3-1.7-1.7C347.8,304.1,348.3,303.6,348.8,302.8z"/>
	<path d="M363.7,308.5c-1,1.7-2,3-3.1,3.9c-0.9-0.6-1.6-1.4-2.1-2.5c-0.5-1.1-0.8-2.3-0.8-3.7c0-1.3,0.1-2.5,0.4-3.6
		c-0.7,0.1-1.3,0.5-1.9,1.2l-0.4-0.5c0.8-1.3,1.9-2.2,3.3-2.9c0.4,0.5,0.9,1,1.5,1.3c-0.6,0.9-0.9,2.2-0.9,3.9c0,2,0.5,3.4,1.6,4.2
		c0.8-0.6,1.6-1.4,2.3-2.5l0-0.8c0-1.1,0.1-2.1,0.3-3c-0.4-0.5-0.8-0.9-1.1-1.1c0.6-0.5,1.3-1.2,1.9-2.1c0.4,0.8,0.9,1.4,1.5,1.8
		c-0.4,1.3-0.6,2.8-0.6,4.6c0,1.2,0.1,2.1,0.3,2.8c0.5-0.2,1-0.5,1.6-1l0.5,0.5c-1.1,0.9-2,1.9-2.9,2.9c-0.1,0.1-0.2,0.2-0.3,0.4
		C364.2,311.7,363.8,310.4,363.7,308.5z"/>
	<path d="M372,306.2v3.3c0.3,0.4,0.7,0.7,1.1,1.1c-0.7,0.6-1.3,1.2-1.7,1.8c-0.5-0.7-1.1-1.2-1.8-1.6c0.2-0.8,0.3-1.5,0.3-2.2v-3.8
		c0-0.9-0.2-1.6-0.5-2c-0.6,0.4-1.1,0.9-1.5,1.5l-0.5-0.4c0.7-1.2,1.7-2.4,3-3.4c0.9,1,1.4,2.2,1.5,3.8c0.5-1.7,1.5-2.9,2.9-3.8
		c0.5,0.7,1.1,1,1.7,1.1c-0.2,1-0.5,1.8-1,2.3c-0.6-0.2-1.1-0.5-1.5-0.9C373.2,303.7,372.5,304.8,372,306.2z"/>
</g>
<g class="st0">
	<path d="M390.2,306.5l-0.8,0.7l-0.7,0.1l-0.5,5c0,0.4-0.5,0.7-2,1.4c0.1-0.5,0.2-1.2,0.2-2c-2.3,0.6-2.9,0.7-3.7,0.7
		c-2.8,0-5.5-2.2-5.5-5.9c0-4.4,2.6-7.3,7.1-7.3c3.7,0,4.5,1.7,4.5,2.1c0,0.1,0,0.3-1,1.5l-0.5,0.5l-0.2-0.1c-0.1-2-1.2-3.4-3.3-3.4
		c-2.9,0-4.2,2.8-4.2,5.8c0,2.9,1.3,5.8,4.6,5.8c0.4,0,1.3-0.1,2.3-0.4c0-0.7,0.1-1.8,0.1-2.6c0-1-0.2-1.1-1.1-1.2l-1.8-0.3l0.7-0.6
		H390.2z"/>
	<path d="M398.2,310.6c-0.2,0.3-2.2,1.9-4.2,1.9c-2.2,0-2.9-1.8-2.9-3.9c0-3,1.2-3.9,1.4-4.1c0.1-0.1,1.5-0.9,2.3-1.2
		c0.8-0.3,1.1-0.4,1.6-0.4c1.8,0,2.9,1.2,2.9,3.9C399.2,309,398.8,309.8,398.2,310.6z M393.2,307.4c0,1.2,0.4,3.9,2.1,3.9
		c1.4,0,1.9-1.5,1.9-3.7c0-2.4-0.9-3.7-2-3.7C393.7,303.9,393.2,305.5,393.2,307.4z"/>
	<path d="M399.2,304.5c1-0.6,3.1-1.6,3.3-1.6c0.1,0,0.4,0.1,0.5,0.3c0.4,1.8,1.5,6.4,1.5,7.5h0c1.9-2.6,2.4-3.8,2.4-4.8
		c0-0.9-0.3-1.7-0.8-2.3l2.1-0.9c0.5,0.5,0.7,1.1,0.7,1.7c0,0.9-0.4,1.8-1.4,3.2c-2,2.8-2.6,3.7-3,4.3l-1.6,0.6
		c-0.1-0.9-0.3-2.3-1.2-6c-0.3-1.4-0.5-1.7-1.3-1.7c-0.3,0-0.5,0-1.3,0.2V304.5z"/>
	<path d="M411.1,309.3c0.5,1.5,1.2,2,2.2,2c0.9,0,1.4-0.6,1.4-1.2c0-0.5-0.3-1-1.1-1.3c-2.6-1-2.9-1.6-2.9-2.6
		c0-0.8,0.3-1.4,1.1-2.1c1.1-1,1.6-1.2,2.8-1.2c0.7,0,1.5,0.1,2.1,0.9l-1.1,1.5l-0.1,0c-0.5-0.9-1.3-1.3-2.1-1.3
		c-0.8,0-1.3,0.5-1.3,1.2c0,0.5,0.3,1,1.9,1.5c1.7,0.5,2.3,1,2.3,2.3c0,0.7-0.3,1.6-1.4,2.4c-1.3,0.9-2.3,1-3,1c-1,0-2.1-0.6-2.4-2
		L411.1,309.3z"/>
</g>
<g class="st0">
	<path d="M418.6,312.2v-1.5h1.4v1.5H418.6z"/>
	<path d="M423,308.3c0,1.1,0.1,3,1.6,3c1.3,0,1.4-1.1,1.5-2.1h1.1c0,1.6-0.6,3.1-2.5,3.1c-2.5,0-2.9-2.1-2.9-4.3
		c0-2,0.3-4.5,2.9-4.5c1.7,0,2.5,1.3,2.5,2.8h-1.1c0-0.9-0.3-1.8-1.4-1.8C423,304.6,423,307.2,423,308.3z"/>
	<path d="M431.6,312.4c-1.8,0-3-1.1-3-4.7c0-2.5,0.9-4.1,3-4.1s3,1.6,3,4.1C434.6,311.3,433.4,312.4,431.6,312.4z M431.6,304.6
		c-1.2,0-1.8,1-1.8,3.5c0,2,0.4,3.3,1.8,3.3c1.4,0,1.8-1.3,1.8-3.3C433.3,305.6,432.8,304.6,431.6,304.6z"/>
	<path d="M437.6,312.2h-1.2v-8.3h1.1v1.1h0c0.4-0.7,1.1-1.3,2-1.3c0.9,0,1.6,0.5,2,1.3c0.6-0.9,1.2-1.3,2.2-1.3
		c0.6,0,1.1,0.2,1.5,0.6c0.5,0.5,0.5,1.4,0.5,1.9v6h-1.2V306c0-0.9-0.3-1.5-1.3-1.5c-0.4,0-0.8,0.2-1.1,0.5
		c-0.5,0.4-0.5,0.9-0.5,1.5v5.6h-1.2V306c0-0.9-0.3-1.5-1.2-1.5c-0.4,0-0.9,0.2-1.2,0.5c-0.5,0.4-0.5,0.9-0.5,1.5V312.2z"/>
</g>
</svg>
